<svg xmlns="http://www.w3.org/2000/svg" width="495" height="195" viewBox="0 0 495 195">
  <rect x="0.5" y="0.5" width="494" height="194" rx="10" fill="#0a0b10" stroke="#1f2029" stroke-width="1" />
  
  <!-- Title -->
  <text x="25" y="35" font-family="'Segoe UI', Ubuntu, sans-serif" font-weight="700" font-size="18" fill="#6366f1">Most Used Languages</text>

  <!-- Progress Bar -->
  <g>
    <rect x="25" y="60" width="445" height="10" fill="#111219" rx="5" ry="5" />
    <rect x="25" y="60" width="279.88181674280133" height="10" fill="#3178c6" rx="5" ry="5"  /><rect x="304.88181674280133" y="60" width="97.28458317277635" height="10" fill="#3572A5"   /><rect x="304.88181674280133" y="60" width="3" height="10" fill="#3572A5" /><rect x="402.1663999155777" y="60" width="22.422886017606107" height="10" fill="#663399"   /><rect x="402.1663999155777" y="60" width="3" height="10" fill="#663399" /><rect x="424.5892859331838" y="60" width="18.838990534999823" height="10" fill="#e34c26"   /><rect x="424.5892859331838" y="60" width="3" height="10" fill="#e34c26" /><rect x="443.42827646818364" y="60" width="17.572732975497804" height="10" fill="#f1e05a"   /><rect x="443.42827646818364" y="60" width="3" height="10" fill="#f1e05a" /><rect x="461.0010094436814" y="60" width="8.998990556318592" height="10" fill="#3D6117"  rx="5" ry="5" /><rect x="461.0010094436814" y="60" width="3" height="10" fill="#3D6117" />
  </g>

  <!-- Legends -->
  <g>
    
    <g transform="translate(25, 95)">
      <circle cx="6" cy="6" r="6" fill="#3178c6" />
      <text x="20" y="10" font-family="'Segoe UI', Ubuntu, sans-serif" font-size="13" font-weight="600" fill="#f3f4f6">TypeScript</text>
      <text x="140" y="10" font-family="'Segoe UI', Ubuntu, sans-serif" font-size="13" font-weight="500" fill="#ffffff" fill-opacity="0.6">62.9%</text>
    </g>
    <g transform="translate(255, 95)">
      <circle cx="6" cy="6" r="6" fill="#3572A5" />
      <text x="20" y="10" font-family="'Segoe UI', Ubuntu, sans-serif" font-size="13" font-weight="600" fill="#f3f4f6">Python</text>
      <text x="140" y="10" font-family="'Segoe UI', Ubuntu, sans-serif" font-size="13" font-weight="500" fill="#ffffff" fill-opacity="0.6">21.9%</text>
    </g>
    <g transform="translate(25, 123)">
      <circle cx="6" cy="6" r="6" fill="#663399" />
      <text x="20" y="10" font-family="'Segoe UI', Ubuntu, sans-serif" font-size="13" font-weight="600" fill="#f3f4f6">CSS</text>
      <text x="140" y="10" font-family="'Segoe UI', Ubuntu, sans-serif" font-size="13" font-weight="500" fill="#ffffff" fill-opacity="0.6">5.0%</text>
    </g>
    <g transform="translate(255, 123)">
      <circle cx="6" cy="6" r="6" fill="#e34c26" />
      <text x="20" y="10" font-family="'Segoe UI', Ubuntu, sans-serif" font-size="13" font-weight="600" fill="#f3f4f6">HTML</text>
      <text x="140" y="10" font-family="'Segoe UI', Ubuntu, sans-serif" font-size="13" font-weight="500" fill="#ffffff" fill-opacity="0.6">4.2%</text>
    </g>
    <g transform="translate(25, 151)">
      <circle cx="6" cy="6" r="6" fill="#f1e05a" />
      <text x="20" y="10" font-family="'Segoe UI', Ubuntu, sans-serif" font-size="13" font-weight="600" fill="#f3f4f6">JavaScript</text>
      <text x="140" y="10" font-family="'Segoe UI', Ubuntu, sans-serif" font-size="13" font-weight="500" fill="#ffffff" fill-opacity="0.6">3.9%</text>
    </g>
    <g transform="translate(255, 151)">
      <circle cx="6" cy="6" r="6" fill="#3D6117" />
      <text x="20" y="10" font-family="'Segoe UI', Ubuntu, sans-serif" font-size="13" font-weight="600" fill="#f3f4f6">TeX</text>
      <text x="140" y="10" font-family="'Segoe UI', Ubuntu, sans-serif" font-size="13" font-weight="500" fill="#ffffff" fill-opacity="0.6">2.0%</text>
    </g>
  </g>
</svg>