<svg xmlns="http://www.w3.org/2000/svg" width="495" height="195" viewBox="0 0 495 195">
  <defs>
    <linearGradient id="glow" x1="0%" y1="0%" x2="100%" y2="100%">
      <stop offset="0%" stop-color="#6366f1" />
      <stop offset="100%" stop-color="#a855f7" />
    </linearGradient>
  </defs>
  <rect x="0.5" y="0.5" width="494" height="194" rx="10" fill="#0a0b10" stroke="#1f2029" stroke-width="1" />
  
  <!-- Title -->
  <text x="25" y="35" font-family="'Segoe UI', Ubuntu, sans-serif" font-weight="700" font-size="18" fill="#6366f1">Roel's GitHub Stats</text>
  
  <!-- Stats list -->
  <g font-family="'Segoe UI', Ubuntu, sans-serif" font-size="14" font-weight="500" fill="#f3f4f6">
    <!-- Total Stars -->
    <g transform="translate(25, 60)">
      <path d="M8 .25a.75.75 0 0 1 .673.418l1.882 3.815 4.21.612a.75.75 0 0 1 .416 1.279l-3.046 2.97 1.902 4.907a.75.75 0 0 1-1.088.791L8 12.347l-3.949 2.076a.75.75 0 0 1-1.088-.79l1.902-4.908-3.046-2.97a.75.75 0 0 1 .416-1.279l4.21-.611L7.327.668A.75.75 0 0 1 8 .25Z" fill="#a855f7" />
      <text x="25" y="12.5" fill="#f3f4f6">Total Stars:</text>
      <text x="170" y="12.5" font-weight="700" fill="#ffffff">2</text>
    </g>

    <!-- Commits -->
    <g transform="translate(25, 85)">
      <path d="M10.5 7.75a2.5 2.5 0 1 1-5 0 2.5 2.5 0 0 1 5 0Zm4.25.75a.75.75 0 0 0 0-1.5h-1.5a4.002 4.002 0 0 0-7.5 0h-1.5a.75.75 0 0 0 0 1.5h1.5a4.002 4.002 0 0 0 7.5 0h1.5Z" fill="#a855f7" />
      <text x="25" y="12.5" fill="#f3f4f6">Total Commits (Yr):</text>
      <text x="170" y="12.5" font-weight="700" fill="#ffffff">465</text>
    </g>

    <!-- PRs -->
    <g transform="translate(25, 110)">
      <path d="M7.177 3.073L9.573.677A.25.25 0 0 1 10 .854v4.292a.25.25 0 0 1-.427.177L7.177 2.927a.25.25 0 0 1 0-.354ZM1.25 2.5a.75.75 0 1 0 1.5 0 .75.75 0 0 0-1.5 0Zm-.75 8a2.25 2.25 0 1 1 3 2.122v-6.244a2.251 2.251 0 0 1-1.5 0v6.244A2.251 2.251 0 0 1 .5 10.5Z" fill="#a855f7" />
      <text x="25" y="12.5" fill="#f3f4f6">Total PRs:</text>
      <text x="170" y="12.5" font-weight="700" fill="#ffffff">0</text>
    </g>

    <!-- Issues -->
    <g transform="translate(25, 135)">
      <path d="M8 9.5a1.5 1.5 0 1 0 0-3 1.5 1.5 0 0 0 0 3Z" fill="#a855f7" />
      <path d="M8 0a8 8 0 1 1 0 16A8 8 0 0 1 8 0ZM1.5 8a6.5 6.5 0 1 0 13 0 6.5 6.5 0 0 0-13 0Z" fill="#a855f7" />
      <text x="25" y="12.5" fill="#f3f4f6">Total Issues:</text>
      <text x="170" y="12.5" font-weight="700" fill="#ffffff">0</text>
    </g>

    <!-- Followers -->
    <g transform="translate(25, 160)">
      <path d="M7 14s-1 0-1-1 1-4 5-4 5 3 5 4-1 1-1 1H7Zm4-6a3 3 0 1 0 0-6 3 3 0 0 0 0 6Zm-5.784 6A2.24 2.24 0 0 1 5 13c0-1.355.68-2.75 1.936-3.72A7.77 7.77 0 0 0 5 9c-4 0-5 3-5 4s1 1 1 1h4.216ZM4.5 8a2.5 2.5 0 1 0 0-5 2.5 2.5 0 0 0 0 5Z" fill="#a855f7" />
      <text x="25" y="12.5" fill="#f3f4f6">Followers:</text>
      <text x="170" y="12.5" font-weight="700" fill="#ffffff">5</text>
    </g>
  </g>

  <!-- Circular Rank indicator on the right -->
  <g transform="translate(360, 95)">
    <circle cx="0" cy="0" r="45" fill="none" stroke="#1f2029" stroke-width="6" />
    <circle cx="0" cy="0" r="45" fill="none" stroke="url(#glow)" stroke-width="6" stroke-dasharray="283" stroke-dashoffset="40" />
    <text x="0" y="8" font-family="'Segoe UI', Ubuntu, sans-serif" font-weight="800" font-size="28" fill="#ffffff" text-anchor="middle">A+</text>
    <text x="0" y="62" font-family="'Segoe UI', Ubuntu, sans-serif" font-weight="600" font-size="11" fill="#f3f4f6" text-anchor="middle" fill-opacity="0.6">RANK</text>
  </g>
</svg>